<svg width="49" height="46" viewBox="0 0 49 46" fill="none" xmlns="http://www.w3.org/2000/svg">
<path d="M16.2877 32.1042C16.3714 31.9844 16.34 31.8546 16.1936 31.7148C16.0053 31.5751 15.8588 31.5551 15.7542 31.6549C15.6705 31.7747 15.7019 31.9045 15.8484 32.0443C16.0367 32.184 16.1831 32.204 16.2877 32.1042ZM15.409 30.8763C15.3044 30.7365 15.1789 30.6966 15.0324 30.7565C14.9069 30.8364 14.9069 30.9562 15.0324 31.1159C15.1789 31.2756 15.3044 31.3255 15.409 31.2656C15.5345 31.1858 15.5345 31.056 15.409 30.8763ZM14.1223 29.6784C14.1642 29.5985 14.1119 29.5187 13.9654 29.4388C13.8189 29.3989 13.7353 29.4188 13.7143 29.4987C13.6516 29.5985 13.6934 29.6784 13.8399 29.7383C14.0072 29.7782 14.1014 29.7582 14.1223 29.6784ZM14.7814 30.3672C14.8232 30.3472 14.8389 30.3023 14.8284 30.2324C14.818 30.1625 14.7814 30.1076 14.7186 30.0677C14.5931 29.928 14.4884 29.898 14.4048 29.9779C14.3211 30.0577 14.3315 30.1675 14.4361 30.3073C14.5617 30.4271 14.6767 30.447 14.7814 30.3672ZM17.4803 32.6133C17.5221 32.4735 17.428 32.3637 17.1978 32.2839C17.0095 32.224 16.8736 32.2639 16.7899 32.4036C16.748 32.5434 16.8422 32.6532 17.0723 32.7331C17.2606 32.793 17.3966 32.753 17.4803 32.6133ZM18.7984 32.7031C18.7984 32.5434 18.6728 32.4635 18.4218 32.4635C18.2126 32.4635 18.1079 32.5434 18.1079 32.7031C18.1079 32.8628 18.223 32.9427 18.4532 32.9427C18.6833 32.9427 18.7984 32.8628 18.7984 32.7031ZM20.0223 32.4935C19.9805 32.3537 19.8445 32.3038 19.6143 32.3437C19.3842 32.3837 19.29 32.4735 19.3319 32.6133C19.3737 32.773 19.4993 32.8329 19.7085 32.793C19.9177 32.753 20.0223 32.6532 20.0223 32.4935ZM40.1701 23C40.1701 18.7674 38.601 15.1536 35.4627 12.1589C32.3244 9.16406 28.5375 7.66667 24.1021 7.66667C19.6666 7.66667 15.8798 9.16406 12.7415 12.1589C9.60317 15.1536 8.03403 18.7674 8.03403 23C8.03403 26.3342 9.0592 29.334 11.1096 31.9993C13.1599 34.6647 15.7961 36.5165 19.0181 37.5547C19.3946 37.6146 19.6719 37.5647 19.8497 37.4049C20.0275 37.2452 20.1165 37.0456 20.1165 36.806C20.1165 35.7678 20.106 34.8194 20.0851 33.9609C19.9595 33.9809 19.7974 34.0059 19.5986 34.0358C19.3999 34.0658 19.0285 34.0857 18.4845 34.0957C17.9406 34.1057 17.4384 34.0658 16.9782 33.9759C16.5179 33.8861 16.0628 33.6864 15.613 33.377C15.1632 33.0675 14.8546 32.6532 14.6872 32.1341C14.206 30.9562 13.6097 30.2174 12.8984 29.918C12.8565 29.898 12.8095 29.8631 12.7572 29.8132L12.5061 29.5736L12.2864 29.2891L12.4119 29.0645L13.0239 28.9596C13.1494 28.9596 13.3064 28.9796 13.4947 29.0195C13.683 29.0595 13.9968 29.2142 14.4361 29.4837C14.8755 29.7533 15.2207 30.1076 15.4718 30.5469C15.8065 31.1059 16.1988 31.5252 16.6486 31.8047C17.0985 32.0842 17.5535 32.224 18.0138 32.224C18.4741 32.224 18.8716 32.189 19.2063 32.1191C19.5411 32.0493 19.8549 31.9544 20.1478 31.8346C20.2943 30.8963 20.6395 30.2075 21.1835 29.7682C20.1583 29.6484 19.2587 29.4638 18.4845 29.2142C17.7104 28.9646 16.9468 28.5753 16.1936 28.0462C15.4404 27.5171 14.8598 26.7585 14.4518 25.7702C14.0439 24.7819 13.8399 23.589 13.8399 22.1914C13.8399 20.6141 14.3943 19.2465 15.5032 18.0885C15.001 16.8507 15.0533 15.4931 15.6601 14.0156C16.0576 13.8958 16.6277 13.9707 17.3704 14.2402C18.1132 14.5098 18.7461 14.8043 19.2691 15.1237L20.0851 15.6029C21.2985 15.2635 22.6375 15.0937 24.1021 15.0937C25.5666 15.0937 26.9056 15.2635 28.1191 15.6029C28.3492 15.4631 28.6474 15.2834 29.0135 15.0638C29.3796 14.8442 29.9602 14.5846 30.7553 14.2852C31.5503 13.9857 32.1466 13.8958 32.5441 14.0156C33.1508 15.4931 33.2031 16.8507 32.701 18.0885C33.8099 19.2465 34.3643 20.6141 34.3643 22.1914C34.3643 23.3294 34.2178 24.3327 33.9249 25.2012C33.632 26.0697 33.2607 26.7684 32.8108 27.2975C32.361 27.8266 31.8014 28.2708 31.1319 28.6302C30.4624 28.9896 29.8085 29.2491 29.1704 29.4089C28.5323 29.5686 27.8157 29.6884 27.0207 29.7682C27.753 30.3872 28.1191 31.3355 28.1191 32.6133C28.1191 33.4119 28.1139 34.3003 28.1034 35.2786C28.0929 36.2569 28.0877 36.7661 28.0877 36.806C28.0877 37.0456 28.1766 37.2452 28.3545 37.4049C28.5323 37.5647 28.8095 37.6146 29.1861 37.5547C32.4081 36.5165 35.0443 34.6647 37.0946 31.9993C39.145 29.334 40.1701 26.3342 40.1701 23ZM48.2042 8.625V37.375C48.2042 39.7509 47.3202 41.7823 45.5523 43.4694C43.7844 45.1565 41.6556 46 39.1659 46H9.03828C6.54857 46 4.41976 45.1565 2.65186 43.4694C0.883952 41.7823 0 39.7509 0 37.375V8.625C0 6.24913 0.883952 4.21766 2.65186 2.5306C4.41976 0.843533 6.54857 0 9.03828 0H39.1659C41.6556 0 43.7844 0.843533 45.5523 2.5306C47.3202 4.21766 48.2042 6.24913 48.2042 8.625Z" fill="white"/>
</svg>
