<svg width="66" height="59" viewBox="0 0 66 59" fill="none" xmlns="http://www.w3.org/2000/svg">
<path d="M33 0.220001C14.9732 0.220001 0.359985 13.3289 0.359985 29.5C0.359985 45.6711 14.9732 58.78 33 58.78C51.0268 58.78 65.64 45.6711 65.64 29.5C65.64 13.3289 51.0268 0.220001 33 0.220001ZM46.277 24.2052C46.2906 24.4553 46.294 24.7054 46.294 24.9494C46.294 32.5744 39.8306 41.3615 28.0054 41.3615C24.5112 41.3667 21.0897 40.4664 18.1522 38.769C18.652 38.8239 19.1654 38.8452 19.6856 38.8452C22.698 38.8452 25.469 37.9272 27.6688 36.3778C26.3282 36.3541 25.0293 35.9559 23.953 35.2386C22.8767 34.5213 22.0766 33.5207 21.6644 32.3762C22.6271 32.5404 23.6189 32.506 24.5646 32.2755C23.1095 32.0116 21.8011 31.3043 20.861 30.2737C19.9209 29.243 19.4071 27.9525 19.4068 26.6208V26.5507C20.2738 26.9807 21.2666 27.243 22.3206 27.2735C20.9565 26.4589 19.9909 25.2076 19.6211 23.7756C19.2514 22.3435 19.5056 20.8388 20.3316 19.5692C21.9464 21.3504 23.9603 22.8075 26.2427 23.8462C28.5252 24.885 31.0253 25.4821 33.5814 25.5991C33.2564 24.3617 33.3963 23.0627 33.9792 21.904C34.5622 20.7453 35.5555 19.7918 36.8048 19.1918C38.0542 18.5918 39.4895 18.3789 40.8876 18.5861C42.2858 18.7933 43.5684 19.4092 44.5362 20.3378C45.975 20.0824 47.3547 19.609 48.6162 18.9379C48.1367 20.2742 47.1327 21.4089 45.7908 22.1312C47.0653 21.9935 48.3097 21.6861 49.4832 21.2193C48.6212 22.3779 47.5354 23.3891 46.277 24.2052V24.2052Z" fill="black"/>
</svg>
