<svg width="79" height="71" viewBox="0 0 79 71" fill="none" xmlns="http://www.w3.org/2000/svg">
<path d="M52.3066 49.5521C52.1695 49.3672 52.2209 49.1669 52.4609 48.9512C52.7695 48.7355 53.0095 48.7046 53.181 48.8587C53.3181 49.0436 53.2667 49.2439 53.0267 49.4596C52.7181 49.6753 52.4781 49.7062 52.3066 49.5521ZM53.7467 47.6569C53.9182 47.4412 54.1239 47.3796 54.3639 47.472C54.5697 47.5953 54.5697 47.7802 54.3639 48.0267C54.1239 48.2732 53.9182 48.3503 53.7467 48.2578C53.541 48.1345 53.541 47.9342 53.7467 47.6569ZM55.8555 45.8079C55.7869 45.6847 55.8726 45.5614 56.1126 45.4381C56.3526 45.3765 56.4898 45.4073 56.5241 45.5306C56.627 45.6847 56.5584 45.8079 56.3184 45.9004C56.0441 45.962 55.8898 45.9312 55.8555 45.8079ZM54.7754 46.8711C54.7068 46.8403 54.6811 46.7709 54.6982 46.6631C54.7154 46.5552 54.7754 46.4705 54.8783 46.4089C55.084 46.1931 55.2554 46.1469 55.3926 46.2702C55.5297 46.3934 55.5126 46.5629 55.3411 46.7786C55.1354 46.9635 54.9468 46.9944 54.7754 46.8711ZM50.3522 50.3379C50.2836 50.1222 50.4379 49.9527 50.8151 49.8294C51.1237 49.737 51.3466 49.7986 51.4837 50.0143C51.5523 50.23 51.398 50.3995 51.0208 50.5228C50.7122 50.6152 50.4894 50.5536 50.3522 50.3379ZM48.1921 50.4766C48.1921 50.23 48.3978 50.1068 48.8092 50.1068C49.1521 50.1068 49.3236 50.23 49.3236 50.4766C49.3236 50.7231 49.135 50.8464 48.7578 50.8464C48.3806 50.8464 48.1921 50.7231 48.1921 50.4766ZM46.1862 50.153C46.2548 49.9373 46.4776 49.8602 46.8548 49.9219C47.232 49.9835 47.3863 50.1222 47.3177 50.3379C47.2491 50.5844 47.0434 50.6769 46.7005 50.6152C46.3576 50.5536 46.1862 50.3995 46.1862 50.153ZM13.1667 35.5C13.1667 28.967 15.7383 23.3893 20.8815 18.7669C26.0247 14.1445 32.2309 11.8333 39.5 11.8333C46.7691 11.8333 52.9753 14.1445 58.1185 18.7669C63.2617 23.3893 65.8333 28.967 65.8333 35.5C65.8333 40.6463 64.1532 45.2764 60.793 49.3903C57.4327 53.5042 53.1124 56.3624 47.832 57.9648C47.2148 58.0573 46.7605 57.9803 46.4691 57.7337C46.1776 57.4872 46.0319 57.179 46.0319 56.8092C46.0319 55.2068 46.049 53.7431 46.0833 52.418C46.2891 52.4488 46.5548 52.4873 46.8805 52.5335C47.2063 52.5798 47.8149 52.6106 48.7064 52.626C49.5979 52.6414 50.4208 52.5798 51.1751 52.4411C51.9295 52.3024 52.6752 51.9942 53.4124 51.5166C54.1496 51.039 54.6554 50.3995 54.9297 49.5983C55.7183 47.7802 56.6955 46.64 57.8613 46.1777C57.9299 46.1469 58.0071 46.093 58.0928 46.0159L58.5042 45.6462L58.8643 45.207L58.6585 44.8604L57.6556 44.6986C57.4499 44.6986 57.1927 44.7294 56.8841 44.791C56.5755 44.8526 56.0612 45.0915 55.3411 45.5075C54.6211 45.9235 54.0553 46.4705 53.6439 47.1484C53.0953 48.0113 52.4524 48.6584 51.7152 49.0898C50.978 49.5213 50.2322 49.737 49.4779 49.737C48.7235 49.737 48.072 49.683 47.5234 49.5752C46.9748 49.4673 46.4605 49.321 45.9805 49.1361C45.7405 47.6877 45.1747 46.6246 44.2832 45.9466C45.9633 45.7617 47.4377 45.4767 48.7064 45.0915C49.975 44.7063 51.2266 44.1054 52.4609 43.2887C53.6953 42.4721 54.6468 41.3011 55.3154 39.7757C55.984 38.2503 56.3184 36.4091 56.3184 34.252C56.3184 31.8175 55.4097 29.7066 53.5924 27.9193C54.4154 26.0087 54.3296 23.9132 53.3353 21.6328C52.6838 21.4479 51.7495 21.5635 50.5322 21.9795C49.315 22.3955 48.2778 22.85 47.4206 23.3431L46.0833 24.0827C44.0946 23.5588 41.9002 23.2969 39.5 23.2969C37.0998 23.2969 34.9054 23.5588 32.9167 24.0827C32.5395 23.867 32.0509 23.5896 31.4508 23.2507C30.8508 22.9117 29.8993 22.5111 28.5964 22.0488C27.2934 21.5866 26.3162 21.4479 25.6647 21.6328C24.6704 23.9132 24.5846 26.0087 25.4076 27.9193C23.5903 29.7066 22.6816 31.8175 22.6816 34.252C22.6816 36.0085 22.9217 37.557 23.4017 38.8975C23.8817 40.238 24.4903 41.3165 25.2275 42.1331C25.9647 42.9498 26.8819 43.6354 27.9792 44.1901C29.0764 44.7448 30.1479 45.1454 31.1937 45.3919C32.2395 45.6385 33.4138 45.8233 34.7168 45.9466C33.5167 46.9019 32.9167 48.3657 32.9167 50.3379C32.9167 51.5705 32.9252 52.9418 32.9424 54.4518C32.9595 55.9618 32.9681 56.7476 32.9681 56.8092C32.9681 57.179 32.8224 57.4872 32.5309 57.7337C32.2395 57.9803 31.7852 58.0573 31.168 57.9648C25.8876 56.3624 21.5673 53.5042 18.207 49.3903C14.8468 45.2764 13.1667 40.6463 13.1667 35.5ZM-1.90735e-06 13.3125V57.6875C-1.90735e-06 61.3546 1.44867 64.4901 4.34603 67.0941C7.24338 69.698 10.7322 71 14.8125 71H64.1875C68.2678 71 71.7566 69.698 74.654 67.0941C77.5513 64.4901 79 61.3546 79 57.6875V13.3125C79 9.6454 77.5513 6.50987 74.654 3.90592C71.7566 1.30197 68.2678 0 64.1875 0H14.8125C10.7322 0 7.24338 1.30197 4.34603 3.90592C1.44867 6.50987 -1.90735e-06 9.6454 -1.90735e-06 13.3125Z" fill="black"/>
</svg>
