<svg width="59" height="63" viewBox="0 0 59 63" fill="none" xmlns="http://www.w3.org/2000/svg">
<path d="M23.3272 27.0833C25.2522 27.0833 26.8114 28.3958 26.7761 30C26.7761 31.6042 25.2554 32.9167 23.3272 32.9167C21.4343 32.9167 19.875 31.6042 19.875 30C19.875 28.3958 21.399 27.0833 23.3272 27.0833ZM35.6728 27.0833C37.601 27.0833 39.125 28.3958 39.125 30C39.125 31.6042 37.601 32.9167 35.6728 32.9167C33.7799 32.9167 32.2239 31.6042 32.2239 30C32.2239 28.3958 33.7446 27.0833 35.6728 27.0833ZM51.6086 0.833332C55.3399 0.833332 58.375 3.65083 58.375 7.14208V62.0833L51.2814 56.2646L47.287 52.8346L43.0616 49.1888L44.8134 54.8558H7.39138C3.66008 54.8558 0.625 52.0383 0.625 48.5471V7.14208C0.625 3.65083 3.66008 0.833332 7.39138 0.833332H51.6054H51.6086ZM38.8715 40.8296C46.1641 40.6167 48.9714 36.1746 48.9714 36.1746C48.9714 26.3133 44.2166 18.3187 44.2166 18.3187C39.4683 15.0142 34.9445 15.1046 34.9445 15.1046L34.4825 15.5946C40.0939 17.1871 42.6991 19.4854 42.6991 19.4854C39.6353 17.9162 36.2588 16.9168 32.7661 16.5454C30.5505 16.3179 28.3127 16.3375 26.1024 16.6037C25.9035 16.6037 25.7366 16.6358 25.5409 16.665C24.3859 16.7583 21.5786 17.155 18.0495 18.5958C16.8303 19.115 16.102 19.4854 16.102 19.4854C16.102 19.4854 18.8419 17.0646 24.7805 15.4721L24.4501 15.1046C24.4501 15.1046 19.9295 15.0142 15.178 18.3217C15.178 18.3217 10.4265 26.3133 10.4265 36.1746C10.4265 36.1746 13.1985 40.6138 20.491 40.8296C20.491 40.8296 21.7102 39.4529 22.7047 38.2892C18.5115 37.1225 16.9297 34.6725 16.9297 34.6725C16.9297 34.6725 17.257 34.8883 17.8505 35.1946C17.8826 35.2238 17.9147 35.2558 17.9821 35.285C18.0815 35.3492 18.181 35.3783 18.2805 35.4396C19.105 35.8683 19.9295 36.2038 20.6867 36.4808C22.0406 36.9708 23.6576 37.4608 25.5409 37.7992C28.3621 38.3019 31.2627 38.3118 34.0879 37.8283C35.7335 37.5613 37.339 37.1198 38.8715 36.5129C40.0265 36.1133 41.3131 35.53 42.667 34.7046C42.667 34.7046 41.0179 37.2158 36.6931 38.3504C37.6845 39.5142 38.8747 40.8296 38.8747 40.8296H38.8715Z" fill="black"/>
</svg>
